<svg xmlns="http://www.w3.org/2000/svg" version="1.1" xmlns:xlink="http://www.w3.org/1999/xlink" xmlns:svgjs="http://svgjs.dev/svgjs" width="100%" height="100%" viewBox="0 0 1000 600"><rect width="1000" height="600" x="0" y="0" fill="#533549"/><g><rect width="333.3333333333333" height="333.3333333333333" y="170.841181917035" fill="#ff4c68" transform="matrix(0.8410772668601194,0,0,0.8410772668601194,0,16.129841509727996)" x="148.61900329589844"/><path d="M257.60029750313856 262.5078529689358L372.97103545821324 262.5078529689358L372.97103545821324 280.6942251583105L325.77664812380283 280.6942251583105L325.77664812380283 412.5078483821256L304.79468483754897 412.5078483821256L304.79468483754897 280.6942251583105L257.60029750313856 280.6942251583105L257.60029750313856 262.5078529689358Z " fill="#ffffff" transform="matrix(0.8410772668601194,0,0,0.8410772668601194,0,16.129841509727996)"/><path d="M565.2856651864313 275.40945363386606L648.2276091290094 275.40945363386606L648.2276091290094 288.48393932570025L614.2987784906959 288.48393932570025L614.2987784906959 383.2469471913086L599.214495824745 383.2469471913086L599.214495824745 288.48393932570025L565.2856651864313 288.48393932570025L565.2856651864313 275.40945363386606ZM677.6397992555984 302.336410942999L677.6397992555984 383.2469471913086L663.1606167538978 383.2469471913086L663.1606167538978 302.336410942999L677.6397992555984 302.336410942999ZM670.3137651241409 287.7059534002358L670.3137651241409 287.7059534002358Q666.4238354968184 287.7059534002358 663.7008847576925 285.13427770217254Q660.9779340185668 282.584212724261 660.9779340185668 278.21884725359905L660.9779340185668 278.21884725359905Q660.9779340185668 273.853481782937 663.7008847576925 271.30341680502556Q666.4238354968184 268.7317411069623 670.3137651241409 268.7317411069623L670.3137651241409 268.7317411069623Q674.2036947514634 268.7317411069623 676.9266454905893 271.30341680502556Q679.6495962297151 273.853481782937 679.6495962297151 278.21884725359905L679.6495962297151 278.21884725359905Q679.6495962297151 282.584212724261 676.9266454905893 285.13427770217254Q674.2036947514634 287.7059534002358 670.3137651241409 287.7059534002358ZM702.5353488704629 383.2469471913086L702.5353488704629 304.67036871939257Q707.5058145053752 303.4169469505886 715.7611096033597 302.0338608608739Q723.9947939811925 300.6291640510074 734.7353218966332 300.6291640510074L734.7353218966332 300.6291640510074Q744.3737030843324 300.6291640510074 750.7704762492629 303.3521147901332Q757.1456386940416 306.07506552925906 760.9491254407569 310.98069900371587Q764.7742229076241 315.86472175802083 766.3301947585533 322.71532004613897Q767.8861666094822 329.56591833425705 767.8861666094822 337.8212134322416L767.8861666094822 337.8212134322416L767.8861666094822 383.2469471913086L753.4069841077816 383.2469471913086L753.4069841077816 340.9331571340997Q753.4069841077816 333.45584796157965 752.3912802606474 328.16122152439056Q751.375576413513 322.8665950872015 749.0416186371195 319.6033763442809Q746.707660860726 316.34015760136026 742.8177312334034 314.8706286310384Q738.9278016060808 313.3794889405648 733.1793500457042 313.3794889405648L733.1793500457042 313.3794889405648Q730.8453922693107 313.3794889405648 728.3601594518545 313.53076398162733Q725.8749266343984 313.70364974284166 723.6058010184603 313.91975694435956Q721.3582861226739 314.1574748660293 719.5645963500751 314.4816356683062Q717.7709065774764 314.7841857504313 716.9929206520119 314.93546079149377L716.9929206520119 314.93546079149377L716.9929206520119 383.2469471913086L702.5353488704629 383.2469471913086ZM844.1287873050047 370.6478973428138L844.1287873050047 319.45210130321834Q841.4706687263342 317.2694185678873 836.5002030914222 315.2596215937707Q831.5081267363582 313.22821389950224 825.6084001349188 313.22821389950224L825.6084001349188 313.22821389950224Q819.3845127312028 313.22821389950224 814.9543151000854 315.4757287952886Q810.5025067488162 317.74485441122675 807.714723849235 321.6996161990047Q804.9053302295022 325.67598870693445 803.6735191808499 331.1218901851861Q802.420097412046 336.5677916634377 802.420097412046 342.7916790671538L802.420097412046 342.7916790671538Q802.420097412046 356.94670076657764 809.4219707412267 364.6617278607674Q816.4238440704073 372.3551442348054 828.093632952375 372.3551442348054L828.093632952375 372.3551442348054Q834.014970273966 372.3551442348054 837.969732061744 371.8148762310106Q841.9461045696737 371.27460822721577 844.1287873050047 370.6478973428138L844.1287873050047 370.6478973428138ZM844.1287873050047 305.9237904881965L844.1287873050047 264.99308652070226L858.5863590865537 262.50785370324616L858.5863590865537 380.91298941491505Q853.6158934516415 382.31768622478154 845.8360341969963 383.72238303464803Q838.0561749423512 385.10546912436274 827.9423579113125 385.10546912436274L827.9423579113125 385.10546912436274Q818.6065268057383 385.10546912436274 811.1292176332182 382.166411183719Q803.6735191808499 379.20574252292346 798.3788927436609 373.7598410446719Q793.0842663064718 368.3139395664203 790.2100405262835 360.44763743116795Q787.3358147460951 352.6029460160674 787.3358147460951 342.7916790671538L787.3358147460951 342.7916790671538Q787.3358147460951 333.45584796157965 789.7346046829441 325.67598870693445Q792.1550053399448 317.8961294522893 796.8229208927319 312.29895293297517Q801.490836445519 306.701776413661 808.2549918530299 303.58983271180296Q815.0191472605408 300.4778890099449 823.7282674817129 300.4778890099449L823.7282674817129 300.4778890099449Q830.7301408108937 300.4778890099449 836.1112101286899 302.336410942999Q841.4706687263342 304.19493287605314 844.1287873050047 305.9237904881965L844.1287873050047 305.9237904881965ZM954.905338803091 342.7916790671538L954.905338803091 342.7916790671538Q954.905338803091 352.43006025485306 952.095945183358 360.20991950949826Q949.3081622837769 367.9897787641434 944.2512537682576 373.6085660036093Q939.1943452527381 379.20574252292346 932.1924719235576 382.2312433441744Q925.1905985943769 385.2783548855771 916.9353034963923 385.2783548855771L916.9353034963923 385.2783548855771Q908.7016191185595 385.2783548855771 901.6997457893789 382.2312433441744Q894.6978724601983 379.20574252292346 889.6409639446789 373.6085660036093Q884.5840554291595 367.9897787641434 881.7746618094266 360.20991950949826Q878.9652681896936 352.43006025485306 878.9652681896936 342.7916790671538L878.9652681896936 342.7916790671538Q878.9652681896936 333.30457292051705 881.7746618094266 325.43827078526476Q884.5840554291595 317.5935793701642 889.6409639446789 311.9747921306983Q894.6978724601983 306.3776156113841 901.6997457893789 303.3521147901332Q908.7016191185595 300.30500324873054 916.9353034963923 300.30500324873054L916.9353034963923 300.30500324873054Q925.1905985943769 300.30500324873054 932.1924719235576 303.3521147901332Q939.1943452527381 306.3776156113841 944.2512537682576 311.9747921306983Q949.3081622837769 317.5935793701642 952.095945183358 325.43827078526476Q954.905338803091 333.30457292051705 954.905338803091 342.7916790671538ZM939.8210561371401 342.7916790671538L939.8210561371401 342.7916790671538Q939.8210561371401 329.0904824909176 933.6620008938794 321.0945160347545Q927.5245563707704 313.0769388584397 916.9353034963923 313.0769388584397L916.9353034963923 313.0769388584397Q906.367661342166 313.0769388584397 900.2086060989052 321.0945160347545Q894.0711615757962 329.0904824909176 894.0711615757962 342.7916790671538L894.0711615757962 342.7916790671538Q894.0711615757962 356.49287564339 900.2086060989052 364.4888420995531Q906.367661342166 372.5064192758679 916.9353034963923 372.5064192758679L916.9353034963923 372.5064192758679Q927.5245563707704 372.5064192758679 933.6620008938794 364.4888420995531Q939.8210561371401 356.49287564339 939.8210561371401 342.7916790671538ZM1026.004608102487 378.57903163852154L1026.004608102487 375.16453785453837Q1024.146086169433 376.3963489031905 1018.7866275717884 378.3413137168518Q1013.4055582539922 380.2862785305131 1006.252409883749 380.2862785305131L1006.252409883749 380.2862785305131Q998.9479864724433 380.2862785305131 992.4863811470575 377.9523207541195Q986.0247758216717 375.618362977726 981.205585227822 370.7127295032692Q976.3863946339724 365.8287067489642 973.5770010142394 358.5026726175067Q970.7676073945064 351.19824920620096 970.7676073945064 341.08443217516225L970.7676073945064 341.08443217516225Q970.7676073945064 332.20242619277565 973.4257259731768 324.8115599008628Q976.0622338316955 317.4206936089499 981.1191423472148 312.0612350113054Q986.1760508627342 306.701776413661 993.5020849941917 303.6546648722583Q1000.8065084054974 300.6291640510074 1009.9910644700092 300.6291640510074L1009.9910644700092 300.6291640510074Q1020.1048815010478 300.6291640510074 1027.6470228340231 302.0986930213293Q1035.1891641669986 303.58983271180296 1040.332515563125 304.8216437604551L1040.332515563125 304.8216437604551L1040.332515563125 377.0230597875925Q1040.332515563125 395.6947219987408 1030.672523655274 404.101292137788Q1021.0341424675748 412.50786227683506 1001.4332192898994 412.50786227683506L1001.4332192898994 412.50786227683506Q993.8046350763168 412.50786227683506 987.0404796688058 411.2544405080312Q980.2763242612949 410.0010187392272 975.284247906231 408.29377184723563L975.284247906231 408.29377184723563L977.9423664849014 395.6947219987408Q982.2861212354117 397.40196889073246 988.5964515197348 398.72022281999176Q994.8851710839064 400.06008746940284 1001.7357693720245 400.06008746940284L1001.7357693720245 400.06008746940284Q1014.6589800227962 400.06008746940284 1020.3425994227175 394.91673607327635Q1026.004608102487 389.7733846771498 1026.004608102487 378.57903163852154L1026.004608102487 378.57903163852154ZM1025.8533330614246 362.3926022448292L1025.8533330614246 315.08673583255637Q1023.6706503260934 314.4816356683062 1020.0184386204405 313.91975694435956Q1016.3662269147877 313.3794889405648 1010.1423395110717 313.3794889405648L1010.1423395110717 313.3794889405648Q998.4725506291038 313.3794889405648 992.1622203447805 321.0080731541474Q985.8735007806091 328.63665736773 985.8735007806091 341.2357072162248L985.8735007806091 341.2357072162248Q985.8735007806091 348.2375805454054 987.6671905532078 353.2080461803176Q989.4392696056548 358.2001225353816 992.4863811470575 361.46334127830215Q995.5118819683083 364.7265600212228 999.4882544762381 366.2825318721518Q1003.443016264016 367.83850372308086 1007.6571066936156 367.83850372308086L1007.6571066936156 367.83850372308086Q1013.4055582539922 367.83850372308086 1018.2247488478419 366.2176997116964Q1023.0655501618432 364.57528498016023 1025.8533330614246 362.3926022448292L1025.8533330614246 362.3926022448292Z " fill="#ffffff" transform="matrix(0.8410772668601194,0,0,0.8410772668601194,0,16.129841509727996)"/></g></svg>